# xmcd CD database file
#
# Track frame offsets:
#	150
#	21086
#	38961
#	51435
#	86953
#	103230
#	126157
#	155765
#	172018
#	203077
#	226041
#	240939
#	284680
#	298547
#
# Disc length: 4678 seconds
#
# Revision: 3
# Processed by: cddbd v1.5.1PL0 Copyright (c) Steve Scherf et al.
# Submitted via: CDex 1.51
#
DISCID=cb12440e
DTITLE=Various Artist - SpreadLove
DYEAR=2003
DGENRE=Rhythmic Soul
TTITLE0=Raw Soul Express - The Way We Live
TTITLE1=Gill Scott-Heron and Brian Jackson - It's Your World
TTITLE2=Roy Ayers Ubiquity - Love From The Sun
TTITLE3=Kool and The Gang - Love and Understanding
TTITLE4=Ceaser Frazier - Another Life
TTITLE5=Detroit Emeralds - Set It Out
TTITLE6=Al Hudson and The Soul Partners - Spread Love
TTITLE7=The Clark Sisters - Everything's Gonna Be Alright
TTITLE8=O'Jays - I Love Music
TTITLE9=Side Effect - Always There
TTITLE10=Mighty Ryeders - Let There Be Peace
TTITLE11=Rance Allen Group - Ring My Bell
TTITLE12=Al Green - L-O-V-E (Love)
TTITLE13=The New York Community Choir - Express Yourself
EXTD=YEAR: 2003
EXTT0=
EXTT1=
EXTT2=
EXTT3=
EXTT4=
EXTT5=
EXTT6=
EXTT7=
EXTT8=
EXTT9=
EXTT10=
EXTT11=
EXTT12=
EXTT13=
PLAYORDER=
